<?xml version="1.0" standalone="no"?>
<!DOCTYPE svg PUBLIC "-//W3C//DTD SVG 20010904//EN"
 "http://www.w3.org/TR/2001/REC-SVG-20010904/DTD/svg10.dtd">
<svg version="1.0" xmlns="http://www.w3.org/2000/svg"
 width="512.000000pt" height="512.000000pt" viewBox="0 0 512.000000 512.000000"
 preserveAspectRatio="xMidYMid meet">

<g transform="translate(0.000000,512.000000) scale(0.100000,-0.100000)"
fill="#000000" stroke="none">
<path d="M3155 3761 c-3 -5 -1 -12 4 -15 5 -4 11 0 14 6 2 7 7 11 10 8 3 -3
-1 -14 -9 -25 -13 -17 -16 -18 -25 -5 -8 12 -9 10 -7 -10 2 -14 -1 -24 -7 -24
-5 1 -19 -7 -30 -18 -12 -12 14 -2 62 23 76 41 80 45 60 56 -26 15 -64 17 -72
4z"/>
<path d="M3190 3687 c-41 -24 -93 -55 -115 -68 -22 -14 -112 -65 -200 -114
-88 -48 -190 -106 -227 -127 l-68 -40 -1 -117 -2 -116 -11 119 -11 119 -60 36
c-33 20 -91 54 -130 76 -80 44 -106 58 -230 128 -49 28 -112 63 -139 78 l-49
27 -39 -38 c-21 -22 -39 -34 -40 -27 -1 7 -5 -55 -8 -138 -4 -123 -2 -153 10
-168 8 -11 15 -45 17 -85 2 -37 3 -74 4 -82 1 -8 -1 -52 -4 -97 -4 -73 -3 -81
12 -75 14 5 14 4 2 -11 -7 -9 -10 -17 -6 -17 5 0 0 -9 -11 -21 -20 -22 -4 -14
218 115 64 37 123 66 130 64 8 -3 4 -9 -12 -18 -14 -7 -99 -56 -190 -110 -91
-53 -170 -99 -175 -101 -6 -2 -77 -44 -158 -92 l-147 -89 -2 -126 -2 -127 -3
122 c-3 82 -8 124 -16 132 -21 17 -277 171 -311 186 -17 8 -92 50 -166 94
l-135 79 -6 -27 c-9 -37 -10 -794 -1 -807 4 -6 120 -77 257 -156 138 -80 277
-162 310 -182 33 -20 67 -36 76 -36 9 0 69 32 134 70 129 78 170 100 182 100
4 0 7 -80 5 -178 -3 -139 0 -181 10 -189 7 -6 78 -49 158 -96 80 -47 231 -135
335 -197 l190 -112 60 33 c33 17 187 108 343 202 l282 169 0 174 c0 136 3 174
13 174 7 0 79 -38 159 -85 80 -47 150 -85 156 -85 6 0 64 33 129 73 65 40 205
124 311 186 l192 113 0 433 0 433 -97 55 c-100 56 -245 140 -458 264 l-120 71
-71 -39 c-40 -21 -96 -55 -125 -74 -30 -19 -57 -35 -61 -35 -4 0 -9 94 -10
210 l-3 210 -75 -43z m224 -345 c-6 -4 -11 -29 -11 -57 -3 -108 -30 -295 -44
-295 -16 0 -29 -72 -16 -88 10 -13 9 -14 -13 -2 -21 10 -23 10 -12 -1 6 -7 12
-22 12 -32 0 -13 5 -17 16 -13 8 3 13 2 10 -3 -5 -8 204 -141 222 -141 5 0 80
41 166 91 86 51 158 90 160 88 3 -2 -68 -49 -157 -104 l-162 -101 -6 -94 -5
-95 -2 95 -2 95 -157 95 c-87 52 -165 98 -174 102 -10 4 -62 33 -116 66 -54
33 -131 78 -171 101 -41 24 -72 44 -70 46 4 5 200 116 285 162 34 19 75 35 90
37 66 9 103 19 103 28 0 6 7 8 15 4 8 -3 14 -2 14 2 -3 16 2 22 19 22 10 0 13
-3 6 -8z m666 -357 c0 -2 -10 -9 -22 -15 -22 -11 -22 -10 -4 4 21 17 26 19 26
11z m-50 -29 c0 -7 -103 -67 -107 -62 -3 2 19 18 49 35 55 32 58 33 58 27z
m-1320 -135 c90 -56 268 -161 274 -161 4 0 46 -24 94 -53 48 -29 111 -66 140
-82 62 -33 62 -33 -43 -87 -33 -16 -66 -35 -73 -40 -12 -10 -128 -78 -411
-243 l-121 -70 -2 -145 -2 -145 -4 145 -3 145 -97 57 c-53 31 -121 68 -150 83
-29 15 -97 52 -150 84 -53 31 -110 62 -127 68 -34 13 -67 14 -59 2 2 -5 11 -6
19 -2 8 3 15 1 15 -5 0 -5 -7 -13 -16 -16 -8 -3 -12 -10 -9 -16 4 -6 -1 -7
-11 -3 -12 4 -15 3 -10 -5 4 -7 2 -12 -3 -12 -6 0 -11 -6 -11 -13 0 -7 -15
-36 -34 -65 -19 -28 -37 -69 -39 -89 -2 -21 -3 49 -2 156 l2 195 149 85 c82
46 223 127 314 180 246 141 226 134 280 105 25 -14 65 -37 90 -53z"/>
<path d="M3305 2870 c3 -5 8 -10 11 -10 2 0 4 5 4 10 0 6 -5 10 -11 10 -5 0
-7 -4 -4 -10z"/>
</g>
</svg>
